<?xml version="1.0" encoding="utf-8"?>
<!-- Generator: Adobe Illustrator 24.0.0, SVG Export Plug-In . SVG Version: 6.00 Build 0)  -->
<svg version="1.1" id="Layer_1" xmlns="http://www.w3.org/2000/svg" xmlns:xlink="http://www.w3.org/1999/xlink" x="0px" y="0px"
	 viewBox="0 0 16 16" style="enable-background:new 0 0 16 16;" xml:space="preserve">
<style type="text/css">
	.st0{fill-rule:evenodd;clip-rule:evenodd;}
</style>
<g>
	<circle class="st0" cx="8" cy="8" r="2"/>
	<path class="st0" d="M2.6,4H2C1.4,4,1,4.4,1,5s0.4,1,1,1h3c0.1,0,0.3,0,0.4-0.1c0.2-0.1,0.4-0.3,0.5-0.5C6,5.2,6,5.1,6,5V2
		c0-0.6-0.4-1-1-1S4,1.4,4,2v0.6L1.7,0.3c-0.4-0.4-1-0.4-1.4,0s-0.4,1,0,1.4L2.6,4z"/>
	<path class="st0" d="M10.1,5.4c0.1,0.2,0.3,0.4,0.5,0.5S10.9,6,11.1,6h3c0.6,0,1-0.4,1-1s-0.4-1-1-1h-0.6l2.3-2.3
		c0.4-0.4,0.4-1,0-1.4c-0.4-0.4-1-0.4-1.4,0L12,2.6V2c0-0.6-0.4-1-1-1s-1,0.4-1,1v3C10,5.1,10,5.2,10.1,5.4z"/>
	<path class="st0" d="M13.4,12H14c0.6,0,1-0.4,1-1s-0.4-1-1-1h-3c-0.1,0-0.3,0-0.4,0.1c-0.2,0.1-0.4,0.3-0.5,0.5
		C10,10.8,10,10.9,10,11v3c0,0.6,0.4,1,1,1s1-0.4,1-1v-0.6l2.3,2.3c0.4,0.4,1,0.4,1.4,0c0.4-0.4,0.4-1,0-1.4L13.4,12z"/>
	<path class="st0" d="M5.9,10.6c-0.1-0.2-0.3-0.4-0.5-0.5C5.2,10,5.1,10,4.9,10H2c-0.6,0-1,0.4-1,1s0.4,1,1,1h0.6l-2.3,2.3
		c-0.4,0.4-0.4,1,0,1.4c0.4,0.4,1,0.4,1.4,0L4,13.4V14c0,0.6,0.4,1,1,1s1-0.4,1-1v-3C6,10.9,6,10.8,5.9,10.6z"/>
</g>
</svg>
