<?xml version="1.0" encoding="utf-8"?>
<svg version="1.1" id="Layer_1" xmlns="http://www.w3.org/2000/svg" xmlns:xlink="http://www.w3.org/1999/xlink" x="0px" y="0px"
	 viewBox="0 0 16 16" enable-background="new 0 0 16 16" xml:space="preserve">
  <g id="contour_2">
    <path fill-rule="evenodd" clip-rule="evenodd" 
           d="M 8.8242188,0.00390625 A 7.1686597,6.4686532 0 0 0 1.65625,6.4726562 7.1686597,6.4686532 0 0 0 2.4921875,9.4980469 5.906158,3.5916173 0 0 0 0.03125,12.408203 5.906158,3.5916173 0 0 0 5.9375,16 a 5.906158,3.5916173 0 0 0 5.90625,-3.591797 5.906158,3.5916173 0 0 0 -0.0039,-0.07422 7.1686597,6.4686532 0 0 0 4.154297,-5.8613278 7.1686597,6.4686532 0 0 0 -7.1699222,-6.46874995 z
              M 8.8730469,0.75390625 A 6.4040904,5.7186732 0 0 0 2.46875,6.4726562 6.4040904,5.7186732 0 0 0 3.703125,9.8359375 5.0624361,2.8728893 0 0 0 0.84375,12.417969 a 5.0624361,2.8728893 0 0 0 5.0625,2.873047 5.0624361,2.8728893 0 0 0 5.0625,-2.873047 5.0624361,2.8728893 0 0 0 -0.08789,-0.521485 6.4040904,5.7186732 0 0 0 4.396485,-5.4238278 6.4040904,5.7186732 0 0 0 -6.4042971,-5.71874995 z
              M 13.843655,6.2234058 A 4.999917,4.031189 0 0 1 8.8437376,10.254595 4.999917,4.031189 0 0 1 3.8438206,6.2234058 4.999917,4.031189 0 0 1 8.8437376,2.1922169 4.999917,4.031189 0 0 1 13.843655,6.2234058 Z
              M 13.093679,6.2234049 A 4.2186928,3.281208 0 0 1 8.8749866,9.5046129 4.2186928,3.281208 0 0 1 4.6562939,6.2234049 4.2186928,3.281208 0 0 1 8.8749866,2.9421968 4.2186928,3.281208 0 0 1 13.093679,6.2234049 Z
              M 11.281198,6.3796539 A 2.406215,1.812472 0 0 1 8.8749828,8.1921259 2.406215,1.812472 0 0 1 6.4687679,6.3796539 2.406215,1.812472 0 0 1 8.8749828,4.5671819 2.406215,1.812472 0 0 1 11.281198,6.3796539 Z
              M 10.468723,6.3484039 A 1.593737,1.1562411 0 0 1 8.8749857,7.504645 1.593737,1.1562411 0 0 1 7.2812487,6.3484039 a 1.593737,1.1562411 0 0 1 1.593737,-1.156241 1.593737,1.1562411 0 0 1 1.5937373,1.156241 z
              M 9.0312541,12.530562 A 3.1874521,1.819766 0 0 1 5.843802,14.350328 3.1874521,1.819766 0 0 1 2.6563499,12.530562 3.1874521,1.819766 0 0 1 5.843802,10.710796 3.1874521,1.819766 0 0 1 9.0312541,12.530562 Z
              M 8.2187703,12.535789 A 2.3749731,1.1562411 0 0 1 5.8437972,13.69203 2.3749731,1.1562411 0 0 1 3.4688241,12.535789 2.3749731,1.1562411 0 0 1 5.8437972,11.379547 2.3749731,1.1562411 0 0 1 8.2187703,12.535789 Z"
     />
  </g>
</svg>
