<?xml version="1.0" encoding="UTF-8"?>
<svg xmlns="http://www.w3.org/2000/svg" xmlns:xlink="http://www.w3.org/1999/xlink" width="16pt" height="16pt" viewBox="0 0 16 16" version="1.1">
    <g id="surface1">
        <path
            style=" stroke:none;fill-rule:nonzero;fill:rgb(0%,0%,0%);fill-opacity:1;"
            d="M 11.390625 11.390625 L 10.824219 11.960938 L 10.542969 11.679688 L 11.113281 11.113281 L 9.769531 9.769531 L 9.199219 10.335938 L 8.921875 10.054688 L 9.488281 9.488281 L 8.144531 8.144531 L 7.574219 8.710938 L 7.296875 8.433594 L 7.863281 7.863281 L 6.511719 6.511719 L 5.953125 7.078125 L 5.664062 6.800781 L 6.230469 6.230469 L 4.886719 4.886719 L 4.320312 5.457031 L 4.039062 5.167969 L 4.609375 4.601562 L 3.199219 3.199219 L 3.199219 11.601562 C 3.199219 12.265625 3.734375 12.800781 4.398438 12.800781 L 12.800781 12.800781 Z M 4.800781 11.199219 L 4.800781 7.0625 L 8.9375 11.199219 Z M 4.800781 11.199219 "
        />
    </g>
</svg>
