<?xml version="1.0" encoding="utf-8"?>
<svg version="1.1" id="Layer_1" xmlns="http://www.w3.org/2000/svg" xmlns:xlink="http://www.w3.org/1999/xlink" x="0px" y="0px"
	 viewBox="0 0 16 16" enable-background="new 0 0 16 16" xml:space="preserve">

 <g>
  <title>Layer 1</title>
  <g stroke="null" id="regression_chart_1_">
   <g stroke="null" id="svg_1">
    <path stroke="null" id="svg_2" d="m9.68361,10.28122c0,0.60521 0.48941,1.09375 1.09571,1.09375s1.09571,-0.48854 1.09571,-1.09375s-0.48942,-1.09375 -1.09571,-1.09375s-1.09571,0.48854 -1.09571,1.09375zm-3.28712,-1.09375c0.60629,0 1.09571,-0.48854 1.09571,-1.09375s-0.48942,-1.09375 -1.09571,-1.09375s-1.09571,0.48854 -1.09571,1.09375s0.48942,1.09375 1.09571,1.09375zm0.36524,3.28126c0,0.60521 0.48942,1.09375 1.09571,1.09375s1.09571,-0.48854 1.09571,-1.09375s-0.48942,-1.09375 -1.09571,-1.09375s-1.09571,0.48854 -1.09571,1.09375zm-3.28712,-1.09375c0.60629,0 1.09571,-0.48854 1.09571,-1.09375s-0.48942,-1.09375 -1.09571,-1.09375s-1.09571,0.48854 -1.09571,1.09375s0.48942,1.09375 1.09571,1.09375zm7.66994,2.91667l-8.57572,0l8.78756,-6.26356l-0.42367,-0.59063l-9.28428,6.61356l0,-6.32189c0,-0.40104 -0.32871,-0.72917 -0.73047,-0.72917s-0.73047,0.32813 -0.73047,0.72917l0,7.29169c0,0.40104 0.32871,0.72917 0.73047,0.72917l10.22659,0c0.40176,0 0.73047,-0.32813 0.73047,-0.72917c0,-0.40104 -0.32871,-0.72917 -0.73047,-0.72917z" clip-rule="evenodd" fill-rule="evenodd"/>
   </g>
  </g>
  <text xml:space="preserve" text-anchor="start" font-family="sans-serif" font-size="10" id="svg_3" y="5.21879" x="6.96874" stroke-width="0" stroke="#000" fill="#000000"> z</text>
 </g>
</svg>