<?xml version="1.0" encoding="utf-8"?>
<svg version="1.1" id="Layer_1" xmlns="http://www.w3.org/2000/svg" xmlns:xlink="http://www.w3.org/1999/xlink" x="0px" y="0px"
	 viewBox="0 0 16 16" enable-background="new 0 0 16 16" xml:space="preserve">
  <g id="region_list">
    <path fill-rule="evenodd" clip-rule="evenodd" 
      d="m0.628914,7.453033l8.804795,0c0.345903,0 0.628914,-0.283011 0.628914,-0.628914c0,-0.345903 -0.283011,-0.628914 -0.628914,-0.628914l-8.804795,0c-0.345903,0 -0.628914,0.283011 -0.628914,0.628914c0,0.345903 0.283011,0.628914 0.628914,0.628914zm8.804795,6.289139l-8.804795,0c-0.345903,0 -0.628914,0.283011 -0.628914,0.628914c0,0.345903 0.283011,0.628914 0.628914,0.628914l8.804795,0c0.345903,0 0.628914,-0.283011 0.628914,-0.628914c0,-0.345903 -0.283011,-0.628914 -0.628914,-0.628914zm0,-2.515656l-8.804795,0c-0.345903,0 -0.628914,0.283011 -0.628914,0.628914c0,0.345903 0.283011,0.628914 0.628914,0.628914l8.804795,0c0.345903,0 0.628914,-0.283011 0.628914,-0.628914c0,-0.345903 -0.283011,-0.628914 -0.628914,-0.628914zm0,-2.515656l-8.804795,0c-0.345903,0 -0.628914,0.283011 -0.628914,0.628914c0,0.345903 0.283011,0.628914 0.628914,0.628914l8.804795,0c0.345903,0 0.628914,-0.283011 0.628914,-0.628914c0,-0.345903 -0.283011,-0.628914 -0.628914,-0.628914z
      M 10.390921,0.59442941 V 7.2584271 h 0.886666 V 4.4117614 h 2.165333 q 0.326666,0 0.522666,0.1026667 0.196,0.093333 0.317333,0.2613332 0.121334,0.1586666 0.177334,0.3826666 0.056,0.2146666 0.09333,0.4573331 0.04667,0.2426666 0.056,0.4946665 0.0093,0.2519999 0.01867,0.4759999 0.0093,0.2146666 0.03733,0.3919998 0.03733,0.1773333 0.130667,0.2799999 h 0.989333 q -0.14,-0.1679999 -0.214667,-0.3826665 -0.06533,-0.2239999 -0.102667,-0.4666665 -0.03733,-0.2426666 -0.04667,-0.4946665 -0.0093,-0.2519999 -0.028,-0.4946665 -0.028,-0.2426666 -0.084,-0.4666665 Q 15.262919,4.7290947 15.150919,4.5517614 15.048252,4.3650948 14.861586,4.2344282 14.684253,4.1037616 14.394919,4.0477616 v -0.018667 q 0.606667,-0.1679999 0.877333,-0.6253331 0.28,-0.4573332 0.28,-1.0639996 0,-0.8119998 -0.541333,-1.2786663 -0.532,-0.46666649 -1.483999,-0.46666649 z M 13.125586,3.665095 H 11.277587 V 1.3410958 h 2.202666 q 0.625333,0 0.905333,0.3173333 0.28,0.3173332 0.28,0.821333 0,0.3639999 -0.130667,0.5973331 -0.121333,0.224 -0.336,0.3639999 -0.205333,0.1306666 -0.485333,0.1773333 -0.28,0.046667 -0.588,0.046667 z"
    />
  </g>
</svg>

