<?xml version="1.0" encoding="utf-8"?>
<svg version="1.1" id="Layer_1" xmlns="http://www.w3.org/2000/svg" xmlns:xlink="http://www.w3.org/1999/xlink" x="0px" y="0px"
	 viewBox="0 0 16 16" enable-background="new 0 0 16 16" xml:space="preserve">
  <g id="spatial">
    <path fill-rule="evenodd" clip-rule="evenodd" 
      d="m12.773438,9.978644l-1.243281,0l-1.447656,-2.171484l-0.017031,0.008516c-0.153281,-0.229922 -0.400234,-0.391719 -0.698281,-0.391719c-0.366172,0 -0.672734,0.229922 -0.791953,0.553516l-0.008516,0l-1.439141,3.840547l-1.175156,-7.085l-0.017031,0c-0.068125,-0.400234 -0.400234,-0.715313 -0.826016,-0.715313c-0.349141,0 -0.655703,0.212891 -0.783437,0.519453l0,0l0,0c0,0 0,0 0,0l-2.333281,5.441484l-1.141094,0c-0.468359,0 -0.851562,0.383203 -0.851562,0.851563c0,0.468359 0.383203,0.851563 0.851562,0.851563l1.703125,0c0.349141,0 0.655703,-0.212891 0.783438,-0.519453l0,0l0,0c0,0 0,0 0,0l1.405078,-3.287031l1.22625,7.348984l0.017031,0c0.068125,0.400234 0.400234,0.715312 0.826016,0.715312c0.366172,0 0.672734,-0.229922 0.791953,-0.553516l0.008516,0l1.967109,-5.254141l0.783437,1.175156l0.017031,-0.008516c0.144766,0.221406 0.391719,0.383203 0.689766,0.383203l1.703125,0c0.468359,0 0.851563,-0.383203 0.851563,-0.851563c0,-0.468359 -0.383203,-0.851563 -0.851563,-0.851563z
      M 8.3904279,2.3870306 6.5797618,4.9256964 h 0.961333 L 8.8850944,2.9283637 10.229094,4.9256964 h 1.017333 L 9.3797609,2.3216973 11.041094,0.10036468 h -0.952 L 8.8850944,1.7896974 7.7277615,0.10036468 h -1.017333 z
      M 13.818489,5.5696962 q -0.14,0.3546665 -0.28,0.5973331 -0.130667,0.2426666 -0.298667,0.3919999 -0.158666,0.1586666 -0.364,0.2239999 -0.196,0.074667 -0.457333,0.074667 -0.14,0 -0.28,-0.018667 -0.14,-0.018667 -0.270666,-0.065333 V 6.045696 q 0.102666,0.046667 0.233333,0.074667 0.14,0.037333 0.233333,0.037333 0.242667,0 0.401333,-0.1213333 0.168,-0.112 0.252,-0.3266666 L 13.314489,4.8976964 11.401156,0.10036468 h 0.896 l 1.409333,3.94799862 h 0.01867 l 1.353333,-3.94799862 h 0.84 z"
    />
  </g>
</svg>

