<?xml version="1.0" encoding="utf-8"?>
<svg version="1.1" id="Layer_1" xmlns="http://www.w3.org/2000/svg" xmlns:xlink="http://www.w3.org/1999/xlink" x="0px" y="0px"
	 viewBox="0 0 16 16" enable-background="new 0 0 16 16" xml:space="preserve">
  <g id="spectral">
    <path fill-rule="evenodd" clip-rule="evenodd" 
      d="m12.773438,9.978644l-1.243281,0l-1.447656,-2.171484l-0.017031,0.008516c-0.153281,-0.229922 -0.400234,-0.391719 -0.698281,-0.391719c-0.366172,0 -0.672734,0.229922 -0.791953,0.553516l-0.008516,0l-1.439141,3.840547l-1.175156,-7.085l-0.017031,0c-0.068125,-0.400234 -0.400234,-0.715313 -0.826016,-0.715313c-0.349141,0 -0.655703,0.212891 -0.783437,0.519453l0,0l0,0c0,0 0,0 0,0l-2.333281,5.441484l-1.141094,0c-0.468359,0 -0.851562,0.383203 -0.851562,0.851563c0,0.468359 0.383203,0.851563 0.851562,0.851563l1.703125,0c0.349141,0 0.655703,-0.212891 0.783438,-0.519453l0,0l0,0c0,0 0,0 0,0l1.405078,-3.287031l1.22625,7.348984l0.017031,0c0.068125,0.400234 0.400234,0.715312 0.826016,0.715312c0.366172,0 0.672734,-0.229922 0.791953,-0.553516l0.008516,0l1.967109,-5.254141l0.783437,1.175156l0.017031,-0.008516c0.144766,0.221406 0.391719,0.383203 0.689766,0.383203l1.703125,0c0.468359,0 0.851563,-0.383203 0.851563,-0.851563c0,-0.468359 -0.383203,-0.851563 -0.851563,-0.851563z
      M 11.225128,5.0020008 v 0.6933355 h 4.650681 V 4.8953338 H 12.355798 L 15.726475,0.79932088 V 0.18065225 h -4.288013 v 0.80000253 h 3.114676 z"
    />
  </g>
</svg>

