<?xml version="1.0" encoding="utf-8"?>
<svg version="1.1" id="Layer_1" xmlns="http://www.w3.org/2000/svg" xmlns:xlink="http://www.w3.org/1999/xlink" x="0px" y="0px"
	 viewBox="0 0 16 16" enable-background="new 0 0 16 16" xml:space="preserve">
  <g id="stokes">
    <path fill-rule="evenodd" clip-rule="evenodd" 
      d="m12.773438,9.978644l-1.243281,0l-1.447656,-2.171484l-0.017031,0.008516c-0.153281,-0.229922 -0.400234,-0.391719 -0.698281,-0.391719c-0.366172,0 -0.672734,0.229922 -0.791953,0.553516l-0.008516,0l-1.439141,3.840547l-1.175156,-7.085l-0.017031,0c-0.068125,-0.400234 -0.400234,-0.715313 -0.826016,-0.715313c-0.349141,0 -0.655703,0.212891 -0.783437,0.519453l0,0l0,0c0,0 0,0 0,0l-2.333281,5.441484l-1.141094,0c-0.468359,0 -0.851562,0.383203 -0.851562,0.851563c0,0.468359 0.383203,0.851563 0.851562,0.851563l1.703125,0c0.349141,0 0.655703,-0.212891 0.783438,-0.519453l0,0l0,0c0,0 0,0 0,0l1.405078,-3.287031l1.22625,7.348984l0.017031,0c0.068125,0.400234 0.400234,0.715312 0.826016,0.715312c0.366172,0 0.672734,-0.229922 0.791953,-0.553516l0.008516,0l1.967109,-5.254141l0.783437,1.175156l0.017031,-0.008516c0.144766,0.221406 0.391719,0.383203 0.689766,0.383203l1.703125,0c0.468359,0 0.851563,-0.383203 0.851563,-0.851563c0,-0.468359 -0.383203,-0.851563 -0.851563,-0.851563z
      M 12.043082,4.1413775 h -0.906669 q 0.02133,0.5120017 0.213334,0.8746695 0.192,0.3520011 0.512001,0.5760018 0.320001,0.213334 0.736003,0.3093343 0.416001,0.096 0.874669,0.096 0.416002,0 0.832003,-0.085334 0.426668,-0.074667 0.757336,-0.2773342 0.341334,-0.2026673 0.544001,-0.533335 0.213334,-0.3306677 0.213334,-0.8320026 0,-0.394668 -0.16,-0.6613355 Q 15.50976,3.341375 15.253759,3.1707078 15.008425,2.9893739 14.677757,2.8827069 14.357756,2.7760399 14.016422,2.701373 13.696421,2.6267061 13.37642,2.5627059 13.056419,2.488039 12.800418,2.3920387 12.544417,2.2853717 12.37375,2.1360379 q -0.16,-0.1600005 -0.16,-0.3946679 0,-0.213334 0.106667,-0.3413344 0.106667,-0.1386672 0.277334,-0.2133341 0.170667,-0.085334 0.373334,-0.1173337 0.213334,-0.032 0.416002,-0.032 0.224,0 0.437334,0.053334 0.224001,0.042667 0.405335,0.1493338 0.181334,0.1066671 0.298668,0.288001 0.117333,0.1706672 0.138667,0.4373347 H 15.57376 Q 15.54176,1.4640358 15.360426,1.133368 15.179092,0.79203363 14.869758,0.60003303 14.57109,0.39736572 14.176422,0.32269882 13.781755,0.23736521 13.31242,0.23736521 q -0.362668,0 -0.736003,0.0960003 -0.362667,0.0853336 -0.661335,0.27733421 -0.288001,0.1813339 -0.480002,0.48000147 -0.181333,0.2986677 -0.181333,0.714669 0,0.533335 0.266667,0.8320026 0.266668,0.2986676 0.661335,0.4693348 0.405335,0.1600005 0.87467,0.2560008 0.469335,0.085334 0.864003,0.2026673 0.405334,0.106667 0.672002,0.2880009 0.266667,0.1813339 0.266667,0.5333351 0,0.2560008 -0.128,0.426668 -0.128001,0.1600005 -0.330668,0.2453341 -0.192,0.085334 -0.426668,0.1173337 -0.234667,0.032 -0.448001,0.032 -0.277334,0 -0.544002,-0.053334 -0.256001,-0.053333 -0.469335,-0.1706672 -0.202667,-0.1280004 -0.330668,-0.3306677 -0.128,-0.213334 -0.138667,-0.5120017 z"
    />
  </g>
</svg>

